<?xml version="1.0" standalone="no"?>
<!DOCTYPE svg PUBLIC "-//W3C//DTD SVG 20010904//EN"
 "http://www.w3.org/TR/2001/REC-SVG-20010904/DTD/svg10.dtd">
<svg version="1.0" xmlns="http://www.w3.org/2000/svg"
 width="512.000000pt" height="512.000000pt" viewBox="0 0 512.000000 512.000000"
 preserveAspectRatio="xMidYMid meet">

<g transform="translate(0.000000,512.000000) scale(0.100000,-0.100000)"
fill="#1a80bf" stroke="none">
<path d="M320 4947 c-49 -16 -133 -102 -148 -153 -18 -60 -18 -4408 0 -4468
16 -55 99 -138 154 -154 60 -18 4408 -18 4468 0 55 16 138 99 154 154 18 60
18 4408 0 4468 -16 55 -99 138 -154 154 -57 17 -4421 16 -4474 -1z m4455 -172
c25 -24 25 -24 25 -240 l0 -215 -2240 0 -2240 0 0 215 c0 216 0 216 25 240
l24 25 2191 0 2191 0 24 -25z m25 -2510 l0 -1896 -25 -24 -24 -25 -2191 0
-2191 0 -24 25 -25 24 0 1896 0 1895 2240 0 2240 0 0 -1895z"/>
<path d="M505 4615 c-16 -15 -25 -36 -25 -55 0 -19 9 -40 25 -55 21 -22 33
-25 95 -25 62 0 74 3 95 25 33 32 33 78 0 110 -21 22 -33 25 -95 25 -62 0 -74
-3 -95 -25z"/>
<path d="M905 4615 c-16 -15 -25 -36 -25 -55 0 -19 9 -40 25 -55 21 -22 33
-25 95 -25 62 0 74 3 95 25 33 32 33 78 0 110 -21 22 -33 25 -95 25 -62 0 -74
-3 -95 -25z"/>
<path d="M1305 4615 c-16 -15 -25 -36 -25 -55 0 -19 9 -40 25 -55 21 -22 33
-25 95 -25 62 0 74 3 95 25 16 15 25 36 25 55 0 19 -9 40 -25 55 -21 22 -33
25 -95 25 -62 0 -74 -3 -95 -25z"/>
<path d="M2185 4615 c-16 -15 -25 -36 -25 -55 0 -19 9 -40 25 -55 l24 -25 991
0 991 0 24 25 c16 15 25 36 25 55 0 19 -9 40 -25 55 l-24 25 -991 0 -991 0
-24 -25z"/>
<path d="M4425 4615 c-16 -15 -25 -36 -25 -55 0 -19 9 -40 25 -55 21 -22 33
-25 95 -25 62 0 74 3 95 25 16 15 25 36 25 55 0 19 -9 40 -25 55 -21 22 -33
25 -95 25 -62 0 -74 -3 -95 -25z"/>
<path d="M1380 3826 c-216 -46 -404 -189 -499 -378 -61 -123 -76 -190 -75
-338 1 -107 5 -137 27 -205 38 -115 90 -198 182 -290 131 -131 277 -199 454
-212 434 -30 796 330 767 765 -6 107 -43 228 -97 320 -49 82 -180 211 -262
257 -148 82 -343 113 -497 81z m60 -448 l0 -292 206 -207 207 -208 -49 -31
c-81 -51 -174 -75 -289 -75 -249 1 -448 149 -531 395 -26 76 -26 244 0 320 45
134 138 255 243 317 55 32 159 72 191 72 l22 1 0 -292z m258 271 c160 -54 297
-191 351 -351 36 -107 55 -98 -214 -98 l-235 0 0 235 c0 269 -9 250 98 214z
m372 -623 c0 -32 -41 -144 -69 -188 -17 -27 -32 -48 -33 -48 -2 0 -59 56 -128
125 l-125 125 178 0 c145 0 177 -3 177 -14z"/>
<path d="M2745 3815 c-16 -15 -25 -36 -25 -55 0 -19 9 -40 25 -55 21 -22 33
-25 95 -25 62 0 74 3 95 25 16 15 25 36 25 55 0 19 -9 40 -25 55 -21 22 -33
25 -95 25 -62 0 -74 -3 -95 -25z"/>
<path d="M3145 3815 c-16 -15 -25 -36 -25 -55 0 -19 9 -40 25 -55 l24 -25 631
0 631 0 24 25 c16 15 25 36 25 55 0 19 -9 40 -25 55 l-24 25 -631 0 -631 0
-24 -25z"/>
<path d="M2745 3495 c-16 -15 -25 -36 -25 -55 0 -19 9 -40 25 -55 l24 -25 831
0 831 0 24 25 c16 15 25 36 25 55 0 19 -9 40 -25 55 l-24 25 -831 0 -831 0
-24 -25z"/>
<path d="M2745 3175 c-16 -15 -25 -36 -25 -55 0 -19 9 -40 25 -55 l24 -25 831
0 831 0 24 25 c16 15 25 36 25 55 0 19 -9 40 -25 55 l-24 25 -831 0 -831 0
-24 -25z"/>
<path d="M2745 2855 c-16 -15 -25 -36 -25 -55 0 -19 9 -40 25 -55 l24 -25 831
0 831 0 24 25 c16 15 25 36 25 55 0 19 -9 40 -25 55 l-24 25 -831 0 -831 0
-24 -25z"/>
<path d="M2745 2535 c-16 -15 -25 -36 -25 -55 0 -19 9 -40 25 -55 l24 -25 631
0 631 0 24 25 c16 15 25 36 25 55 0 19 -9 40 -25 55 l-24 25 -631 0 -631 0
-24 -25z"/>
<path d="M4265 2535 c-16 -15 -25 -36 -25 -55 0 -19 9 -40 25 -55 21 -22 33
-25 95 -25 62 0 74 3 95 25 16 15 25 36 25 55 0 19 -9 40 -25 55 -21 22 -33
25 -95 25 -62 0 -74 -3 -95 -25z"/>
<path d="M665 2055 c-16 -15 -25 -36 -25 -55 0 -19 9 -40 25 -55 21 -22 33
-25 95 -25 62 0 74 3 95 25 33 32 33 78 0 110 -21 22 -33 25 -95 25 -62 0 -74
-3 -95 -25z"/>
<path d="M1065 2055 c-16 -15 -25 -36 -25 -55 0 -19 9 -40 25 -55 l24 -25 631
0 631 0 24 25 c16 15 25 36 25 55 0 19 -9 40 -25 55 l-24 25 -631 0 -631 0
-24 -25z"/>
<path d="M2745 2055 l-25 -24 0 -671 0 -671 25 -24 24 -25 831 0 831 0 24 25
25 24 0 671 0 671 -25 24 -24 25 -831 0 -831 0 -24 -25z m1575 -362 l-1 -228
-92 180 c-76 149 -97 182 -119 189 -58 20 -74 4 -197 -202 l-116 -192 -107 0
c-58 0 -113 -3 -122 -6 -8 -3 -59 -64 -112 -135 -53 -71 -99 -129 -102 -129
-3 0 -31 25 -63 55 -89 85 -94 83 -257 -77 -74 -73 -138 -142 -142 -153 -5
-11 -9 188 -9 453 l-1 472 720 0 720 0 0 -227z m-121 -323 c33 -17 71 -11 96
15 l25 24 0 -304 0 -305 -720 0 -720 0 0 78 c0 69 2 74 13 52 18 -36 58 -53
94 -40 15 6 69 52 120 102 l92 92 65 -62 c70 -67 105 -78 144 -44 11 9 68 81
126 160 l107 142 113 0 c94 0 117 3 134 18 11 9 57 80 102 156 l83 139 53
-106 c30 -58 63 -111 73 -117z"/>
<path d="M665 1735 c-16 -15 -25 -36 -25 -55 0 -19 9 -40 25 -55 l24 -25 831
0 831 0 24 25 c33 32 33 78 0 110 l-24 25 -831 0 -831 0 -24 -25z"/>
<path d="M665 1415 c-16 -15 -25 -36 -25 -55 0 -19 9 -40 25 -55 l24 -25 831
0 831 0 24 25 c33 32 33 78 0 110 l-24 25 -831 0 -831 0 -24 -25z"/>
<path d="M665 1095 c-16 -15 -25 -36 -25 -55 0 -19 9 -40 25 -55 l24 -25 831
0 831 0 24 25 c33 32 33 78 0 110 l-24 25 -831 0 -831 0 -24 -25z"/>
<path d="M665 775 c-16 -15 -25 -36 -25 -55 0 -19 9 -40 25 -55 l24 -25 631 0
631 0 24 25 c16 15 25 36 25 55 0 19 -9 40 -25 55 l-24 25 -631 0 -631 0 -24
-25z"/>
<path d="M2185 775 c-16 -15 -25 -36 -25 -55 0 -19 9 -40 25 -55 21 -22 33
-25 95 -25 62 0 74 3 95 25 16 15 25 36 25 55 0 19 -9 40 -25 55 -21 22 -33
25 -95 25 -62 0 -74 -3 -95 -25z"/>
</g>
</svg>
