<?xml version="1.0" standalone="no"?>
<!DOCTYPE svg PUBLIC "-//W3C//DTD SVG 20010904//EN"
 "http://www.w3.org/TR/2001/REC-SVG-20010904/DTD/svg10.dtd">
<svg version="1.0" xmlns="http://www.w3.org/2000/svg"
 width="128.000000pt" height="128.000000pt" viewBox="0 0 128.000000 128.000000"
 preserveAspectRatio="xMidYMid meet">

<g transform="translate(0.000000,128.000000) scale(0.100000,-0.100000)"
fill="#1a80bf" stroke="none">
<path d="M0 640 l0 -560 640 0 640 0 0 560 0 560 -640 0 -640 0 0 -560z m1200
450 l0 -40 -560 0 -560 0 0 40 0 40 560 0 560 0 0 -40z m0 -525 l0 -415 -560
0 -560 0 0 415 0 415 560 0 560 0 0 -415z"/>
<path d="M150 865 l0 -35 150 0 150 0 0 35 0 35 -150 0 -150 0 0 -35z"/>
<path d="M530 565 l0 -335 300 0 300 0 0 35 c0 34 -1 35 -40 35 l-40 0 0 190
0 190 -75 0 -75 0 0 75 0 75 -110 0 -110 0 0 -150 0 -150 -40 0 -40 0 0 185 0
185 -35 0 -35 0 0 -335z m300 -40 l0 -225 -40 0 -40 0 0 225 0 225 40 0 40 0
0 -225z m150 -75 l0 -150 -40 0 -40 0 0 150 0 150 40 0 40 0 0 -150z m-300
-75 l0 -75 -40 0 -40 0 0 75 0 75 40 0 40 0 0 -75z"/>
<path d="M150 715 l0 -35 150 0 150 0 0 35 0 35 -150 0 -150 0 0 -35z"/>
<path d="M150 565 l0 -35 150 0 150 0 0 35 0 35 -150 0 -150 0 0 -35z"/>
<path d="M150 415 l0 -35 150 0 150 0 0 35 0 35 -150 0 -150 0 0 -35z"/>
<path d="M150 265 l0 -35 150 0 150 0 0 35 0 35 -150 0 -150 0 0 -35z"/>
</g>
</svg>
