<?xml version="1.0" standalone="no"?>
<!DOCTYPE svg PUBLIC "-//W3C//DTD SVG 20010904//EN"
 "http://www.w3.org/TR/2001/REC-SVG-20010904/DTD/svg10.dtd">
<svg version="1.0" xmlns="http://www.w3.org/2000/svg"
 width="512.000000pt" height="512.000000pt" viewBox="0 0 512.000000 512.000000"
 preserveAspectRatio="xMidYMid meet">

<g transform="translate(0.000000,512.000000) scale(0.100000,-0.100000)"
fill="#c23030" stroke="none">
<path d="M2845 5114 c-657 -69 -1214 -399 -1571 -930 -84 -125 -202 -367 -249
-508 -168 -511 -132 -1070 101 -1556 74 -152 118 -226 213 -354 l66 -89 -692
-686 c-634 -629 -692 -690 -703 -731 -42 -159 91 -292 250 -250 41 11 96 62
585 548 297 295 609 604 692 687 l153 149 27 -22 c163 -128 431 -272 638 -342
448 -153 960 -143 1408 27 133 50 272 119 313 155 113 99 91 268 -41 329 -72
33 -114 26 -264 -45 -252 -119 -496 -176 -746 -176 -755 1 -1420 497 -1635
1220 -49 168 -64 276 -64 480 0 204 15 312 64 480 160 536 573 961 1102 1134
807 264 1680 -106 2054 -869 145 -298 202 -636 159 -956 -27 -210 -78 -372
-181 -582 -63 -128 -67 -161 -26 -238 22 -43 38 -59 82 -82 47 -25 63 -28 109
-24 102 11 157 72 250 285 281 639 229 1369 -139 1963 -314 506 -838 856
-1435 960 -116 20 -420 33 -520 23z"/>
<path d="M2352 3809 c-68 -20 -132 -111 -132 -189 0 -79 14 -97 268 -352 l246
-248 -246 -247 c-216 -218 -247 -253 -258 -293 -43 -159 91 -293 250 -250 40
11 75 42 293 258 l247 246 248 -246 c217 -216 252 -247 292 -258 159 -43 293
91 250 250 -11 40 -42 75 -258 293 l-246 247 246 248 c216 217 247 252 258
292 43 159 -91 293 -250 250 -40 -11 -75 -42 -292 -258 l-248 -246 -247 246
c-204 203 -255 248 -288 257 -47 13 -88 13 -133 0z"/>
</g>
</svg>
